<svg xmlns="http://www.w3.org/2000/svg" viewBox="0 0 200 100" width="200" height="100" fill="none">
  <defs>
    <linearGradient id="g1" x1="0%" y1="50%" x2="100%" y2="50%">
      <stop offset="0%" stop-color="#6d28d9"/>
      <stop offset="40%" stop-color="#7c3aed"/>
      <stop offset="100%" stop-color="#a78bfa"/>
    </linearGradient>
    <linearGradient id="g2" x1="0%" y1="50%" x2="100%" y2="50%">
      <stop offset="0%" stop-color="#7c3aed"/>
      <stop offset="60%" stop-color="#9333ea"/>
      <stop offset="100%" stop-color="#c084fc"/>
    </linearGradient>
    <mask id="m1">
      <rect width="200" height="100" fill="white"/>
      <!-- Cut out where right strand goes behind left at crossover -->
      <path d="M88 30 L112 70 L120 66 L96 26Z" fill="black"/>
    </mask>
  </defs>
  <!-- Right loop (behind at crossover) -->
  <path d="M100 50c0 0 18-36 50-36c22 0 40 14 40 36s-18 36-40 36c-32 0-50-36-50-36" 
        stroke="url(#g2)" stroke-width="16" stroke-linecap="round" fill="none"/>
  <!-- Left loop (in front at crossover) -->
  <path d="M100 50c0 0-18 36-50 36C28 86 10 72 10 50s18-36 40-36c32 0 50 36 50 36" 
        stroke="url(#g1)" stroke-width="16" stroke-linecap="round" fill="none" mask="url(#m1)"/>
  <!-- Left strand crossing over (drawn on top) -->
  <path d="M75 72 Q100 50 80 28" stroke="url(#g1)" stroke-width="16" stroke-linecap="round" fill="none"/>
</svg>
