<svg width="32" height="32" viewBox="0 0 32 32" xmlns="http://www.w3.org/2000/svg"><circle cx="16" cy="16" r="16" fill="#000"/><path d="M21.24 9.2L18.04 14.1c-.23.35.2.76.52.47l3.14-2.67c.09-.08.22-.02.22.12v8.96c0 .14-.16.21-.25.11l-10.6-12.1c-.34-.4-.84-.59-1.35-.59h-.44c-.93 0-1.68.75-1.68 1.67v12.66c0 .93.75 1.67 1.68 1.67.57 0 1.1-.3 1.4-.78l3.2-4.9c.23-.35-.2-.76-.52-.47l-3.14 2.67c-.09.08-.22.02-.22-.12V11.04c0-.14.16-.21.25-.11l10.6 12.1c.34.4.84.59 1.35.59h.44c.93 0 1.68-.75 1.68-1.67V9.29c0-.93-.75-1.67-1.68-1.67-.57 0-1.1.3-1.4.78l-.01.02z" fill="#fff"/></svg>
